<?xml version="1.0" standalone="no"?>
<!DOCTYPE svg PUBLIC "-//W3C//DTD SVG 20010904//EN"
 "http://www.w3.org/TR/2001/REC-SVG-20010904/DTD/svg10.dtd">
<svg version="1.0" xmlns="http://www.w3.org/2000/svg"
 width="500.000000pt" height="500.000000pt" viewBox="0 0 500.000000 500.000000"
 preserveAspectRatio="xMidYMid meet">

<g transform="translate(0.000000,500.000000) scale(0.100000,-0.100000)"
fill="#000000" stroke="none">
<path d="M1810 3365 l-185 -185 312 -312 c172 -172 316 -309 320 -305 4 4
-130 145 -297 312 l-304 305 34 37 c89 97 296 303 305 303 5 0 146 -136 312
-302 166 -166 304 -300 307 -297 3 3 -135 145 -307 317 l-312 312 -185 -185z"/>
<path d="M3230 3480 c-41 -8 -91 -32 -110 -55 -24 -29 -1 -28 37 1 33 25 47
29 105 29 80 0 111 -18 146 -86 31 -59 25 -115 -17 -174 -36 -51 -25 -71 13
-23 50 66 59 133 27 203 -16 36 -71 95 -89 95 -4 0 -23 4 -42 8 -19 5 -51 5
-70 2z"/>
<path d="M2050 3315 c-35 -35 -62 -67 -59 -69 3 -3 34 24 69 59 35 35 62 67
59 69 -3 3 -34 -24 -69 -59z"/>
<path d="M2210 3205 c-19 -19 -29 -35 -24 -35 6 0 25 16 44 35 19 19 29 35 24
35 -6 0 -25 -16 -44 -35z"/>
<path d="M2320 3045 c-35 -35 -62 -67 -59 -69 3 -3 34 24 69 59 35 35 62 67
59 69 -3 3 -34 -24 -69 -59z"/>
<path d="M2482 2937 c-18 -18 -29 -36 -25 -40 7 -8 73 51 73 65 0 16 -17 7
-48 -25z"/>
<path d="M3020 2503 c80 -82 217 -221 305 -311 l160 -162 -170 -170 -170 -170
-307 307 c-171 171 -308 300 -308 291 0 -14 596 -608 618 -616 4 -1 88 79 187
178 l180 180 -310 310 c-170 171 -314 310 -320 310 -5 0 55 -66 135 -147z"/>
<path d="M2890 2535 c-19 -19 -30 -38 -26 -42 3 -4 23 9 42 29 20 19 32 38 27
41 -6 4 -25 -9 -43 -28z"/>
<path d="M3000 2365 c-35 -35 -62 -67 -59 -69 3 -3 34 24 69 59 35 35 62 67
59 69 -3 3 -34 -24 -69 -59z"/>
<path d="M3160 2255 c-19 -19 -29 -35 -24 -35 6 0 25 16 44 35 19 19 29 35 24
35 -6 0 -25 -16 -44 -35z"/>
<path d="M1862 2118 c-17 -40 -62 -143 -101 -228 -38 -85 -68 -156 -66 -158 3
-4 178 69 240 100 22 11 80 37 130 58 49 21 91 43 93 48 2 6 -43 -9 -99 -34
-56 -24 -107 -44 -113 -44 -6 0 -38 26 -69 58 l-58 58 37 85 c51 119 55 129
45 129 -4 0 -22 -33 -39 -72z"/>
<path d="M3270 2095 c-35 -35 -62 -67 -59 -69 3 -3 34 24 69 59 35 35 62 67
59 69 -3 3 -34 -24 -69 -59z"/>
</g>
</svg>
